<svg xmlns="http://www.w3.org/2000/svg" viewBox="0 0 400 400" preserveAspectRatio="xMidYMid slice">
<defs>
<linearGradient id="bg" x1="0" y1="0" x2="1" y2="1"><stop offset="0" stop-color="#F9EDE2"/><stop offset="1" stop-color="#F1DCCB"/></linearGradient>
</defs>
<rect width="400" height="400" fill="url(#bg)"/>
<g stroke="#8FA98F" stroke-width="7" fill="none" stroke-linecap="round">
<path d="M60 400 Q120 300 190 236 T332 96"/>
<path d="M190 236 Q230 226 268 238"/>
<path d="M120 330 Q88 310 74 276"/>
</g>
<g fill="#E8907C"><circle cx="332" cy="96" r="30"/><circle cx="268" cy="238" r="22"/><circle cx="74" cy="276" r="18"/><circle cx="206" cy="150" r="13"/></g>
<g fill="#F5B8A5"><circle cx="332" cy="96" r="15"/><circle cx="268" cy="238" r="11"/><circle cx="74" cy="276" r="9"/></g>
<g fill="#FBE3D3"><circle cx="332" cy="96" r="6"/><circle cx="268" cy="238" r="5"/></g>
<g fill="#E8907C" opacity=".5"><circle cx="140" cy="96" r="7"/><circle cx="96" cy="150" r="5"/><circle cx="360" cy="210" r="6"/><circle cx="300" cy="330" r="7"/></g>
</svg>
